<?xml version="1.0" encoding="utf-8"?>
<!-- Generator: Adobe Illustrator 25.2.0, SVG Export Plug-In . SVG Version: 6.00 Build 0)  -->
<svg version="1.1" id="Layer_1" focusable="false" xmlns="http://www.w3.org/2000/svg" xmlns:xlink="http://www.w3.org/1999/xlink"
	 x="0px" y="0px" viewBox="0 0 512 512" style="enable-background:new 0 0 512 512;" xml:space="preserve">
<style type="text/css">
	.st0{fill:#FFFFFF;}
</style>
<path class="st0" d="M48,32C21.5,32,0,53.5,0,80v352c0,26.5,21.5,48,48,48h416c26.5,0,48-21.5,48-48V80c0-26.5-21.5-48-48-48H48z
	 M48,64h106c3.3,0,6,2.7,6,6v20c0,3.3-2.7,6-6,6H38c-3.3,0-6-2.7-6-6V80C32,71.2,39.2,64,48,64z M474,160H38c-3.3,0-6-2.7-6-6v-36
	c0-3.3,2.7-6,6-6h138l30.2-45.3c1.1-1.7,3-2.7,5-2.7H464c8.8,0,16,7.2,16,16v74C480,157.3,477.3,160,474,160z M256,424
	c-66.2,0-120-53.8-120-120s53.8-120,120-120s120,53.8,120,120S322.2,424,256,424z M256,216c-48.5,0-88,39.5-88,88s39.5,88,88,88
	s88-39.5,88-88S304.5,216,256,216z M208,320c-8.8,0-16-7.2-16-16c0-35.3,28.7-64,64-64c8.8,0,16,7.2,16,16c0,8.8-7.2,16-16,16
	c-17.6,0-32,14.4-32,32C224,312.8,216.8,320,208,320z"/>
</svg>
